<svg xmlns="http://www.w3.org/2000/svg" width="1200" height="630" viewBox="0 0 1200 630" role="img" aria-labelledby="title desc">
  <title id="title">Common Quran Reading Mistakes</title>
  <desc id="desc">A high-quality green and gold Islamic article cover with a centered title, lantern, Quran on a wooden stand, prayer beads, and correction notebook.</desc>
  <defs>
    <linearGradient id="bg" x1="0" y1="0" x2="1" y2="1">
      <stop offset="0" stop-color="#062f2b"/>
      <stop offset="0.55" stop-color="#0b4a42"/>
      <stop offset="1" stop-color="#102d2c"/>
    </linearGradient>
    <linearGradient id="gold" x1="0" y1="0" x2="1" y2="1">
      <stop offset="0" stop-color="#fff0ae"/>
      <stop offset="0.45" stop-color="#d9a943"/>
      <stop offset="1" stop-color="#8f5c16"/>
    </linearGradient>
    <linearGradient id="wood" x1="0" y1="0" x2="1" y2="1">
      <stop offset="0" stop-color="#8a5129"/>
      <stop offset="0.5" stop-color="#4f2915"/>
      <stop offset="1" stop-color="#2c160d"/>
    </linearGradient>
    <radialGradient id="light" cx="50%" cy="50%" r="50%">
      <stop offset="0" stop-color="#ffd978" stop-opacity=".85"/>
      <stop offset="1" stop-color="#ffd978" stop-opacity="0"/>
    </radialGradient>
    <pattern id="pattern" width="54" height="54" patternUnits="userSpaceOnUse">
      <path d="M27 2 38 16 52 27 38 38 27 52 16 38 2 27 16 16Z" fill="none" stroke="#d8aa4d" stroke-opacity=".12" stroke-width="1"/>
      <circle cx="27" cy="27" r="5" fill="none" stroke="#d8aa4d" stroke-opacity=".1"/>
    </pattern>
    <filter id="shadow" x="-40%" y="-40%" width="180%" height="180%">
      <feDropShadow dx="0" dy="14" stdDeviation="14" flood-color="#000" flood-opacity=".35"/>
    </filter>
    <filter id="glow" x="-100%" y="-100%" width="300%" height="300%">
      <feGaussianBlur stdDeviation="18"/>
    </filter>
  </defs>

  <rect width="1200" height="630" fill="url(#bg)"/>
  <rect width="1200" height="630" fill="url(#pattern)"/>
  <circle cx="1060" cy="92" r="200" fill="#f4d68b" opacity=".09"/>
  <circle cx="130" cy="525" r="230" fill="#0b1d1b" opacity=".35"/>

  <path d="M210 42 H990 Q1020 42 1020 72 V482 Q1020 520 982 520 H218 Q180 520 180 482 V72 Q180 42 210 42Z"
        fill="#073b36" stroke="url(#gold)" stroke-width="4" filter="url(#shadow)"/>
  <path d="M243 58 H957 Q991 58 991 91 V461 Q991 495 957 495 H243 Q209 495 209 461 V91 Q209 58 243 58Z"
        fill="none" stroke="#f5d47b" stroke-opacity=".32" stroke-width="1.5"/>

  <g transform="translate(600 90)" fill="none" stroke="#e7bd61" stroke-width="3">
    <path d="M0-26 C-18-10-20 4 0 20 C20 4 18-10 0-26Z"/>
    <path d="M-30-2 C-17-18-5-17 0 0 C5-17 17-18 30-2 C18 9 9 13 0 21 C-9 13-18 9-30-2Z"/>
    <path d="M-58 25 H-16 M16 25 H58"/>
  </g>

  <text x="600" y="184" text-anchor="middle" fill="#fff8e8" font-family="Georgia, 'Times New Roman', serif" font-size="52" font-weight="700">Common</text>
  <text x="600" y="252" text-anchor="middle" fill="#fff8e8" font-family="Georgia, 'Times New Roman', serif" font-size="66" font-weight="700">Quran Reading</text>
  <text x="600" y="324" text-anchor="middle" fill="#fff8e8" font-family="Georgia, 'Times New Roman', serif" font-size="66" font-weight="700">Mistakes</text>
  <path d="M380 354 H820" stroke="#d8a84c" stroke-width="2"/>
  <path d="M586 354 l14-9 14 9-14 9Z" fill="#d8a84c"/>
  <text x="600" y="405" text-anchor="middle" fill="#efc970" font-family="Georgia, 'Times New Roman', serif" font-size="28" font-weight="600">How to Identify, Correct and Avoid Them</text>

  <g transform="translate(56 230)" filter="url(#shadow)">
    <ellipse cx="66" cy="206" rx="68" ry="22" fill="#000" opacity=".25"/>
    <circle cx="66" cy="112" r="92" fill="url(#light)" filter="url(#glow)"/>
    <path d="M66 0 C50 16 48 34 66 44 C84 34 82 16 66 0Z" fill="url(#gold)"/>
    <path d="M49 37 H83 L92 59 H40Z" fill="#80511d" stroke="#edc568" stroke-width="3"/>
    <path d="M29 59 H103 L94 196 H38Z" fill="#71431a" stroke="#edc568" stroke-width="4"/>
    <rect x="43" y="75" width="46" height="102" rx="7" fill="#ffc95e" opacity=".88"/>
    <path d="M43 75 89 177 M89 75 43 177 M66 75 V177 M43 126 H89" stroke="#5b3518" stroke-width="5"/>
    <path d="M20 196 H112 L102 218 H30Z" fill="#80511d" stroke="#edc568" stroke-width="3"/>
    <circle cx="66" cy="131" r="20" fill="#fff1a4" opacity=".65"/>
  </g>

  <g transform="translate(926 440) rotate(-8)" filter="url(#shadow)">
    <path d="M-122 66 L80-42 L110-18 L-96 90Z" fill="url(#wood)" stroke="#d79a48" stroke-width="3"/>
    <path d="M-88-22 L118 66 L94 91 L-116 4Z" fill="url(#wood)" stroke="#d79a48" stroke-width="3"/>
    <path d="M-72-104 Q12-128 98-92 L86 14 Q8-4-68 12Z" fill="#f8ebca" stroke="#d9a64d" stroke-width="4"/>
    <path d="M98-92 Q148-102 193-68 L164 35 Q126 5 86 14Z" fill="#f6e7c2" stroke="#d9a64d" stroke-width="4"/>
    <path d="M86-91 V13" stroke="#be8a35" stroke-width="3"/>
    <path d="M-54-84 Q10-101 72-78 M-55-64 Q9-81 70-58 M-57-44 Q7-61 67-39 M-59-24 Q2-41 63-20"
          stroke="#2d5d50" stroke-width="3" opacity=".8"/>
    <path d="M112-72 Q145-78 178-55 M108-51 Q141-57 173-34 M103-30 Q136-36 168-13 M98-9 Q130-15 161 8"
          stroke="#2d5d50" stroke-width="3" opacity=".8"/>
    <path d="M-62-96 Q9-120 82-88 V20 Q6-2-72 19Z" fill="none" stroke="#0c4a42" stroke-width="5"/>
    <path d="M82-88 Q143-100 198-67 L168 44 Q127 9 82 20Z" fill="none" stroke="#0c4a42" stroke-width="5"/>
  </g>

  <g transform="translate(318 494) rotate(-2)" filter="url(#shadow)">
    <rect x="0" y="0" width="420" height="118" rx="14" fill="#efe3c4" stroke="#d0a75a" stroke-width="3"/>
    <path d="M35 0 V118" stroke="#87613d" stroke-width="5"/>
    <g stroke="#bba77f" stroke-width="1">
      <path d="M55 28 H394 M55 52 H394 M55 76 H394 M55 100 H394"/>
    </g>
    <path d="M81 37 l11 11 22-25" fill="none" stroke="#23835f" stroke-width="5" stroke-linecap="round" stroke-linejoin="round"/>
    <path d="M81 63 l11 11 22-25" fill="none" stroke="#23835f" stroke-width="5" stroke-linecap="round" stroke-linejoin="round"/>
    <path d="M81 89 l11 11 22-25" fill="none" stroke="#23835f" stroke-width="5" stroke-linecap="round" stroke-linejoin="round"/>
    <text x="133" y="43" fill="#4a3c28" font-family="Arial, sans-serif" font-size="18">Read slowly and clearly</text>
    <text x="133" y="69" fill="#4a3c28" font-family="Arial, sans-serif" font-size="18">Check pronunciation</text>
    <text x="133" y="95" fill="#4a3c28" font-family="Arial, sans-serif" font-size="18">Review and correct</text>
    <path d="M358 88 l54-68 10 8-54 68Z" fill="#164b40" stroke="#d7a64c" stroke-width="2"/>
  </g>

  <g transform="translate(92 545)" fill="#0f6a58" stroke="#e4b85b" stroke-width="1.5">
    <circle cx="0" cy="0" r="10"/><circle cx="25" cy="-9" r="10"/><circle cx="51" cy="-13" r="10"/>
    <circle cx="77" cy="-9" r="10"/><circle cx="101" cy="3" r="10"/><circle cx="117" cy="23" r="10"/>
    <circle cx="122" cy="47" r="10"/><circle cx="113" cy="70" r="10"/><circle cx="91" cy="84" r="10"/>
    <circle cx="65" cy="87" r="10"/><circle cx="40" cy="79" r="10"/><circle cx="19" cy="63" r="10"/>
    <circle cx="7" cy="40" r="10"/>
    <path d="M122 57 C145 80 153 97 150 113" fill="none" stroke="#d7a64c" stroke-width="4"/>
    <path d="M150 110 l-12 30 12 17 12-17Z" fill="#0f6a58"/>
  </g>

  <path d="M0 0 H160 Q110 28 82 78 Q52 130 0 150Z" fill="#e1b357" opacity=".08"/>
  <path d="M1200 630 H1040 Q1090 602 1118 552 Q1148 500 1200 480Z" fill="#e1b357" opacity=".08"/>
</svg>